<svg xmlns="http://www.w3.org/2000/svg" data-name="Layer 1" viewBox="0 0 64 64"><path fill="#002345" d="M28.14,11.21V21a1,1,0,0,1-1,1h-7ZM12.58,48.51a1,1,0,0,1-1-1v-10a1,1,0,0,1,1-1H39.9a1,1,0,0,1,1,1v10a1,1,0,0,1-1,1Zm39.84,5.34a1,1,0,0,1-1,1H20.14a1,1,0,0,1-1-1V50.51H39.9a3,3,0,0,0,3-3v-10a3,3,0,0,0-3-3H19.14V24h8a3,3,0,0,0,3-3V9.15H51.42a1,1,0,0,1,1,1Z"/><path fill="#fff" d="M23.16 39.53l-1.64 2.75 1.9 3.18h-2l-1-1.87L19.3 45.46H17.71l1.83-3.06-1.75-2.87h2l.88 1.59.91-1.59zM30 39.53v5.93H28.34V41.22l-1.05 4.24h-1.1L25.1 41.22v4.24H23.8V39.53h2.27l.82 3.15.78-3.15zM34.9 44v1.46h-4V39.53h1.73V44z"/></svg>